<svg width="19" height="19" viewBox="0 0 19 19" fill="none" xmlns="http://www.w3.org/2000/svg">
<path d="M9.50449 4.78306C6.80717 4.78306 4.6315 6.88716 4.6315 9.49575C4.6315 12.1043 6.80717 14.2084 9.50449 14.2084C12.2018 14.2084 14.3775 12.1043 14.3775 9.49575C14.3775 6.88716 12.2018 4.78306 9.50449 4.78306ZM9.50449 12.5596C7.76141 12.5596 6.33641 11.1856 6.33641 9.49575C6.33641 7.80591 7.75717 6.43188 9.50449 6.43188C11.2518 6.43188 12.6726 7.80591 12.6726 9.49575C12.6726 11.1856 11.2476 12.5596 9.50449 12.5596ZM15.7134 4.59028C15.7134 5.20142 15.2045 5.6895 14.5768 5.6895C13.9449 5.6895 13.4402 5.19731 13.4402 4.59028C13.4402 3.98325 13.9491 3.49106 14.5768 3.49106C15.2045 3.49106 15.7134 3.98325 15.7134 4.59028ZM18.9409 5.70591C18.8688 4.23345 18.521 2.92915 17.4056 1.85454C16.2944 0.779931 14.9458 0.443604 13.4232 0.369775C11.854 0.283643 7.1507 0.283643 5.5815 0.369775C4.0632 0.439502 2.71454 0.77583 1.59914 1.85044C0.483733 2.92505 0.140206 4.22935 0.0638672 5.70181C-0.0251953 7.21938 -0.0251953 11.768 0.0638672 13.2856C0.135965 14.7581 0.483733 16.0624 1.59914 17.137C2.71454 18.2116 4.05896 18.5479 5.5815 18.6217C7.1507 18.7079 11.854 18.7079 13.4232 18.6217C14.9458 18.552 16.2944 18.2157 17.4056 17.137C18.5168 16.0624 18.8645 14.7581 18.9409 13.2856C19.0299 11.768 19.0299 7.22349 18.9409 5.70591ZM16.9136 14.9139C16.5828 15.7178 15.9424 16.3372 15.1069 16.6612C13.8558 17.1411 10.8871 17.0303 9.50449 17.0303C8.1219 17.0303 5.14891 17.137 3.90204 16.6612C3.07079 16.3413 2.43039 15.7219 2.09534 14.9139C1.59914 13.704 1.71364 10.8329 1.71364 9.49575C1.71364 8.15864 1.60338 5.28345 2.09534 4.07759C2.42614 3.27368 3.06655 2.65435 3.90204 2.33032C5.15315 1.85044 8.1219 1.96118 9.50449 1.96118C10.8871 1.96118 13.8601 1.85454 15.1069 2.33032C15.9382 2.65024 16.5786 3.26958 16.9136 4.07759C17.4099 5.28755 17.2953 8.15864 17.2953 9.49575C17.2953 10.8329 17.4099 13.7081 16.9136 14.9139Z" fill="white"/>
</svg>
