<svg width="23" height="25" viewBox="0 0 23 25" fill="none" xmlns="http://www.w3.org/2000/svg">
<path d="M11.5 0.390625C5.14871 0.390625 0 5.81216 0 12.5C0 19.1878 5.14871 24.6094 11.5 24.6094C17.8513 24.6094 23 19.1878 23 12.5C23 5.81216 17.8513 0.390625 11.5 0.390625ZM16.8304 8.62598C16.6574 10.5408 15.9085 15.1874 15.5274 17.332C15.3662 18.2395 15.0488 18.5438 14.7415 18.5735C14.0738 18.6382 13.5666 18.1088 12.9197 17.6623C11.9076 16.9637 11.3358 16.5288 10.3533 15.847C9.2179 15.0592 9.95395 14.6263 10.601 13.9183C10.7704 13.7331 13.7128 10.9149 13.7698 10.6592C13.7769 10.6272 13.7837 10.5079 13.7163 10.4452C13.6488 10.3825 13.5498 10.4037 13.4781 10.4208C13.3766 10.445 11.7597 11.5704 8.62737 13.7968C8.16845 14.1287 7.75275 14.2903 7.38026 14.2819C6.96965 14.2726 6.17981 14.0375 5.59262 13.8364C4.87243 13.5899 4.30003 13.4596 4.34987 13.041C4.37584 12.8229 4.66102 12.5999 5.20542 12.372C8.55792 10.834 10.7934 9.82 11.912 9.33003C15.1056 7.93125 15.7692 7.68828 16.2018 7.68018C16.2969 7.67852 16.5096 7.70332 16.6474 7.82104C16.7391 7.90491 16.7975 8.02193 16.8111 8.14897C16.8344 8.30672 16.8409 8.46671 16.8304 8.62598Z" fill="white"/>
</svg>
